<?xml version="1.0" encoding="UTF-8"?>
<!DOCTYPE svg PUBLIC "-//W3C//DTD SVG 1.1//EN" "http://www.w3.org/Graphics/SVG/1.1/DTD/svg11.dtd">
<!-- Creator: CorelDRAW 2017 -->
<svg xmlns="http://www.w3.org/2000/svg" xml:space="preserve" width="154.262mm" height="43.7458mm" version="1.1" style="shape-rendering:geometricPrecision; text-rendering:geometricPrecision; image-rendering:optimizeQuality; fill-rule:evenodd; clip-rule:evenodd"
viewBox="0 0 15614.76 4428.04"
 xmlns:xlink="http://www.w3.org/1999/xlink">
 <defs>
  <style type="text/css">
   <![CDATA[
    .fil1 {fill:#CE0011}
    .fil0 {fill:#1D1D1B;fill-rule:nonzero}
   ]]>
  </style>
 </defs>
 <g id="Layer_x0020_1">
  <metadata id="CorelCorpID_0Corel-Layer"/>
  <g id="_2636215531328">
   <path class="fil0" d="M6541.83 4384.14l-1866.23 0 0 -4340.1 1853.83 0 0 558.04 -899.06 0 0 1171.79 811.27 0 0 527.03 -811.27 0 0 1525.21 911.46 0 0 558.04zm149.9 -1740.16l868.06 0 0 996.11c0,99.21 59.93,148.82 179.71,148.82 115.75,0 173.62,-49.61 173.62,-147.73l0 -513.55c0,-157.08 -105.41,-342.11 -315.14,-553.91 -406.07,-392.69 -658.23,-657.24 -757.43,-791.59 -99.21,-135.33 -148.81,-283.16 -148.81,-445.36l0 -486.69c0,-562.17 368.87,-843.26 1105.65,-843.26 660.39,0 990,256.28 990,768.86l0 751.23 -868.06 0 0 -795.72c0,-85.72 -48.53,-129.13 -145.67,-129.13 -113.67,0 -170.46,81.58 -170.46,244.87l18.59 282.17c0,161.12 107.38,348.21 322.33,562.08 398.9,381.38 653.11,646.92 761.57,797.79 108.55,151.86 162.29,322.42 162.29,514.64l0 552.82c0,576.64 -368.87,864.91 -1107.81,864.91 -711.97,0 -1068.44,-262.49 -1068.44,-787.46l0 -989.91zm4370.03 -2035.72l-533.24 0 0 3775.87 -954.77 0 0 -3775.87 -533.24 0 0 -564.23 2021.24 0 0 564.23zm2047.03 3775.87l-1866.23 0 0 -4340.1 1853.83 0 0 558.04 -899.06 0 0 1171.79 811.27 0 0 527.03 -811.27 0 0 1525.21 911.46 0 0 558.04zm2505.96 6.2l-949.65 0c-102.36,-122.92 -154.02,-472.22 -154.02,-1047.78l0 -6.19 5.21 -260.42c5.12,-361.69 7.19,-545.64 7.19,-553.91 0,-147.82 -97.14,-221.15 -291.43,-221.15l0 2083.25 -954.77 0 0 -4340.1 1177 0c268.69,0 502.24,62 700.65,185.02 199.41,122.92 298.61,317.21 298.61,582.75l0 520.84c0,336.89 -196.35,564.24 -590.03,683.04 393.68,93 590.03,332.76 590.03,718.16l-12.41 475.37c0,694.45 57.88,1088.14 173.62,1181.14zm-1091.27 -2846.89l0 -714.04c0,-151.95 -97.14,-227.34 -291.43,-227.34l0 1171.79c194.29,0 291.43,-76.47 291.43,-230.4z"/>
   <path class="fil1" d="M4161.02 -0.01l-3673.1 0c-186.38,0 -349.21,105.91 -431.31,260.49l4104.41 0 0 -260.49zm-4161.02 520.94l0 260.48 4161.02 0 0 -260.48 -4161.02 0zm0 520.98l0 260.44 4161.02 0 0 -260.44 -4161.02 0zm0 520.93l0 260.49 2154.74 0 0 -65.67 72.7 65.67 1933.58 0 0 -260.49 -4161.02 0zm0 520.93l0 260.49 2154.74 0 0 -260.49 -2154.74 0zm2804.28 260.49l1356.74 0 0 -260.49 -1645.19 0 288.45 260.49zm-2804.28 260.44l0 260.48 2154.74 0 0 -260.48 -2154.74 0zm3381.07 260.48l779.96 0 0 -260.48 -1068.4 0 288.44 260.48zm-3381.07 260.49l0 260.43 2154.74 0 0 -260.43 -2154.74 0zm2977.62 260.43l1183.41 0 0 -260.43 -772.12 0 -411.29 260.43zm-2977.62 260.49l0 260.49 2154.74 0 0 -260.49 -2154.74 0zm2154.74 260.49l820.71 0 -194.88 -260.49 -214.39 0 -411.44 260.49zm1174.05 0l832.23 0 0 -260.49 -1027.1 0 194.87 260.49zm-3328.8 260.43l0 260.49 3365.2 0 -194.87 -260.49 -3170.32 0zm3718.5 260.49l442.52 0 0 -260.49 -637.39 0 194.87 260.49z"/>
  </g>
 </g>
</svg>
